<?xml version="1.0" encoding="UTF-8" ?>
<!DOCTYPE svg PUBLIC "-//W3C//DTD SVG 1.1//EN" "http://www.w3.org/Graphics/SVG/1.1/DTD/svg11.dtd">
<svg width="1000pt" height="1000pt" viewBox="0 0 1000 1000" version="1.1" xmlns="http://www.w3.org/2000/svg">
<g id="#000000fc">
<path fill="#000000" opacity="1.00" d=" M 342.91 437.89 C 351.11 428.67 364.12 425.73 375.99 425.93 C 389.58 425.41 404.94 429.20 413.55 440.53 C 418.72 450.80 417.60 462.88 418.16 474.04 C 405.89 474.01 393.62 474.00 381.35 473.75 C 381.16 467.15 381.03 460.57 380.93 453.99 C 379.08 453.23 377.22 452.49 375.37 451.75 C 373.71 457.28 371.57 463.54 373.83 469.14 C 378.50 477.35 388.10 480.32 395.36 485.64 C 403.92 491.81 413.45 498.21 417.63 508.34 C 420.76 518.51 421.43 529.29 420.86 539.88 C 420.33 547.46 418.06 555.10 412.78 560.79 C 400.03 572.00 381.63 573.55 365.61 570.51 C 354.94 567.97 343.95 561.74 340.10 550.92 C 336.81 539.58 337.16 527.64 336.83 515.97 C 349.08 515.99 361.34 515.99 373.61 516.25 C 373.85 525.08 373.66 533.94 374.31 542.77 C 376.35 544.47 378.73 544.71 381.07 546.24 C 383.59 538.80 385.07 530.54 381.90 523.04 C 375.65 515.06 365.92 510.97 357.97 504.99 C 348.91 498.92 339.46 490.87 337.50 479.57 C 335.07 465.74 334.21 449.87 342.91 437.89 Z" />
<path fill="#000000" opacity="1.00" d=" M 211.00 428.99 C 227.57 429.01 244.15 428.99 260.73 429.04 C 263.67 448.75 265.80 468.57 268.33 488.34 C 270.70 468.58 272.30 448.73 275.09 429.03 C 291.72 428.98 308.36 429.01 325.00 428.99 C 325.00 475.66 325.00 522.34 325.00 569.01 C 313.33 568.98 301.66 568.98 290.00 569.01 C 289.87 540.55 290.34 512.09 289.67 483.65 C 286.59 512.09 283.68 540.55 280.93 569.03 C 272.45 568.97 263.97 568.89 255.51 568.68 C 252.82 540.97 249.65 513.29 246.31 485.65 C 245.69 513.43 246.12 541.22 246.00 569.01 C 234.33 568.98 222.66 568.98 211.00 569.01 C 211.00 522.34 211.00 475.66 211.00 428.99 Z" />
<path fill="#000000" opacity="1.00" d=" M 624.99 428.98 C 637.65 429.01 650.33 429.02 663.00 428.99 C 663.00 475.67 663.00 522.34 663.00 569.02 C 650.33 568.98 637.67 568.96 625.01 569.00 C 625.02 567.28 625.03 563.83 625.04 562.11 C 613.99 575.67 588.84 573.51 582.27 556.71 C 578.21 536.10 580.59 514.86 579.94 494.00 C 580.76 482.31 577.85 468.18 586.70 458.70 C 591.81 452.54 600.34 451.19 607.89 451.18 C 614.36 451.63 619.87 455.23 625.08 458.76 C 625.01 448.83 624.99 438.90 624.99 428.98 M 618.20 480.99 C 617.49 502.60 618.22 524.22 618.05 545.84 C 619.29 546.82 620.53 547.80 621.79 548.79 C 626.49 542.53 624.78 534.27 625.17 527.00 C 624.92 509.34 625.46 491.64 624.10 474.02 C 619.32 474.18 617.36 476.51 618.20 480.99 Z" />
<path fill="#000000" opacity="1.00" d=" M 675.00 428.99 C 687.99 429.01 701.00 429.02 714.01 428.99 C 713.98 435.99 713.98 443.00 714.00 450.01 C 700.99 449.98 687.99 449.98 674.99 450.01 C 675.00 443.00 675.00 435.99 675.00 428.99 Z" />
<path fill="#000000" opacity="1.00" d=" M 433.01 437.99 C 445.67 438.01 458.33 438.02 470.99 437.99 C 470.99 443.98 471.00 449.98 471.01 455.98 C 473.93 455.92 477.03 456.04 480.00 456.02 C 479.98 463.00 479.98 469.98 480.00 476.96 C 476.93 476.91 474.03 477.03 471.01 477.03 C 471.01 500.10 470.94 523.18 471.07 546.27 C 473.46 546.63 478.22 547.37 480.61 547.73 C 481.11 554.82 481.06 561.94 481.11 569.05 C 469.62 568.64 457.86 570.32 446.59 567.45 C 439.75 565.19 433.41 559.32 433.51 551.62 C 432.18 526.80 433.37 501.91 433.00 477.06 C 430.32 477.02 427.66 476.99 425.00 476.96 C 425.00 469.98 425.01 463.01 425.00 456.04 C 427.66 456.01 430.32 455.98 432.99 455.97 C 432.98 449.96 433.00 443.98 433.01 437.99 Z" />
<path fill="#000000" opacity="1.00" d=" M 760.45 451.51 C 774.11 450.46 789.18 453.73 798.68 464.30 C 805.76 472.11 806.11 483.06 806.78 493.01 C 807.17 509.22 807.72 525.56 805.58 541.69 C 804.47 550.89 798.88 559.15 791.44 564.47 C 781.41 571.24 768.72 571.29 757.13 570.81 C 749.71 569.80 741.74 568.23 736.09 562.90 C 729.32 557.63 726.23 548.86 725.57 540.56 C 724.45 524.06 724.89 507.49 725.03 490.97 C 725.04 481.50 726.81 471.51 732.97 463.98 C 739.50 455.73 750.20 451.93 760.45 451.51 M 763.55 474.94 C 760.17 498.72 762.15 522.95 763.03 546.86 C 764.54 547.33 766.05 547.80 767.59 548.28 C 769.22 541.32 768.88 534.08 769.12 527.00 C 769.13 509.68 769.20 492.34 768.28 475.04 C 766.70 475.00 765.12 474.97 763.55 474.94 Z" />
<path fill="#000000" opacity="1.00" d=" M 487.00 452.99 C 499.64 453.01 512.28 453.01 524.93 453.00 C 523.44 484.38 523.32 515.90 525.13 547.28 C 527.05 547.32 528.97 547.34 530.90 547.33 C 531.12 515.88 530.94 484.43 531.00 452.99 C 543.66 453.01 556.33 453.02 569.00 452.99 C 569.00 491.66 569.00 530.32 569.00 568.99 C 556.63 568.84 544.20 569.69 531.88 568.62 C 531.53 567.34 530.84 564.78 530.49 563.50 C 520.52 573.92 501.74 573.61 492.22 562.80 C 487.02 556.09 487.13 547.07 486.93 539.02 C 486.91 510.34 487.07 481.67 487.00 452.99 Z" />
<path fill="#000000" opacity="1.00" d=" M 675.00 452.99 C 687.99 453.01 701.00 453.02 714.00 452.99 C 714.00 491.66 714.00 530.33 714.00 569.01 C 700.99 568.98 688.00 568.98 675.00 569.01 C 675.00 530.33 675.00 491.66 675.00 452.99 Z" />
</g>
</svg>
